<svg width="512" height="512" viewBox="0 0 512 512" fill="none" xmlns="http://www.w3.org/2000/svg">
<path d="M461.957 333.828V178.172C477.268 172.161 488.142 157.245 488.142 139.828C488.142 117.119 469.666 98.643 446.957 98.643C436.555 98.643 427.048 102.527 419.791 108.911L296.962 45.462C297.108 44.056 297.184 42.629 297.184 41.185C297.184 18.476 278.709 0 255.999 0C233.29 0 214.814 18.476 214.814 41.185C214.814 42.629 214.89 44.056 215.036 45.462L92.2084 108.911C84.9514 102.527 75.4444 98.643 65.0424 98.643C42.3334 98.643 23.8574 117.119 23.8574 139.828C23.8574 157.246 34.7314 172.162 50.0424 178.173V333.829C34.7314 339.84 23.8574 354.756 23.8574 372.174C23.8574 394.883 42.3334 413.359 65.0424 413.359C75.4444 413.359 84.9514 409.475 92.2084 403.091L215.036 466.539C214.89 467.945 214.814 469.372 214.814 470.816C214.814 493.524 233.29 512 255.999 512C278.708 512 297.184 493.524 297.184 470.815C297.184 469.371 297.108 467.944 296.962 466.538L419.79 403.089C427.047 409.473 436.554 413.357 446.956 413.357C469.665 413.357 488.141 394.881 488.141 372.172C488.142 354.755 477.267 339.839 461.957 333.828ZM270.999 79.53C275.491 77.766 279.6 75.238 283.165 72.102L405.993 135.551C405.847 136.957 405.771 138.384 405.771 139.828C405.771 142.255 405.994 144.629 406.399 146.943L280.95 223.263C277.932 220.958 274.588 219.064 270.999 217.655V79.53ZM65.0434 383.358C58.8764 383.358 53.8584 378.34 53.8584 372.173C53.8584 366.006 58.8764 360.988 65.0434 360.988C71.2104 360.988 76.2284 366.006 76.2284 372.173C76.2284 378.34 71.2104 383.358 65.0434 383.358ZM65.0434 151.012C58.8764 151.012 53.8584 145.994 53.8584 139.827C53.8584 133.66 58.8754 128.642 65.0434 128.642C71.2104 128.642 76.2284 133.66 76.2284 139.827C76.2284 145.994 71.2104 151.012 65.0434 151.012ZM89.9934 339.434C86.9754 337.129 83.6314 335.235 80.0424 333.826V178.172C83.6304 176.763 86.9754 174.87 89.9934 172.564L215.442 248.884C215.037 251.197 214.814 253.572 214.814 255.999C214.814 258.426 215.037 260.801 215.442 263.114L89.9934 339.434ZM240.999 432.47C236.507 434.234 232.398 436.762 228.833 439.898L106.005 376.45C106.151 375.044 106.227 373.617 106.227 372.173C106.227 369.745 106.004 367.371 105.599 365.057L231.048 288.737C234.066 291.042 237.41 292.936 240.999 294.345V432.47ZM240.999 217.656C237.411 219.065 234.066 220.958 231.048 223.264L105.599 146.943C106.004 144.63 106.227 142.255 106.227 139.828C106.227 138.384 106.151 136.957 106.005 135.551L228.833 72.103C232.398 75.238 236.507 77.766 240.999 79.53V217.656ZM255.999 482C249.832 482 244.814 476.982 244.814 470.815C244.814 464.648 249.832 459.63 255.999 459.63C262.166 459.63 267.184 464.648 267.184 470.815C267.184 476.982 262.166 482 255.999 482ZM255.999 267.185C249.832 267.185 244.814 262.167 244.814 256C244.814 249.833 249.832 244.815 255.999 244.815C262.166 244.815 267.184 249.833 267.184 256C267.184 262.167 262.166 267.185 255.999 267.185ZM255.999 52.37C249.832 52.37 244.814 47.352 244.814 41.185C244.814 35.018 249.832 30 255.999 30C262.166 30 267.184 35.018 267.184 41.185C267.184 47.352 262.166 52.37 255.999 52.37ZM405.993 376.449L283.165 439.898C279.6 436.762 275.491 434.234 270.999 432.47V294.345C274.587 292.936 277.932 291.043 280.95 288.737L406.399 365.057C405.994 367.37 405.771 369.745 405.771 372.172C405.772 373.616 405.848 375.043 405.993 376.449ZM431.957 333.83C428.369 335.237 425.024 337.13 422.006 339.436L296.557 263.116C296.962 260.803 297.185 258.428 297.185 256.001C297.185 253.574 296.962 251.199 296.557 248.886L422.006 172.566C425.024 174.872 428.369 176.765 431.957 178.174V333.83ZM446.957 383.358C440.79 383.358 435.772 378.34 435.772 372.173C435.772 366.006 440.79 360.988 446.957 360.988C453.124 360.988 458.142 366.006 458.142 372.173C458.142 378.34 453.124 383.358 446.957 383.358ZM446.957 151.012C440.79 151.012 435.772 145.994 435.772 139.827C435.772 133.66 440.79 128.642 446.957 128.642C453.124 128.642 458.142 133.66 458.142 139.827C458.142 145.994 453.124 151.012 446.957 151.012Z" fill="#333333"/>
</svg>
