<svg width="246" height="318" viewBox="0 0 246 318" fill="none" xmlns="http://www.w3.org/2000/svg">
<path d="M135.121 301.718V285.726L162.834 301.718V317.708L135.121 301.718Z" fill="#0488D0"/>
<path d="M135.121 285.726L148.977 277.732L176.687 293.722L162.834 301.718L135.121 285.726Z" fill="#1C71BB"/>
<path d="M148.979 261.74L162.835 253.743L190.544 269.736L176.688 277.732L148.979 261.74Z" fill="#1C71BB"/>
<path d="M162.834 221.761L218.256 189.782L245.965 205.772L190.543 237.754L162.834 221.761Z" fill="#1C71BB"/>
<path d="M148.979 277.733V261.74L176.688 277.733V293.722L148.979 277.733Z" fill="#0488D0"/>
<path d="M162.834 253.743V221.761L190.543 237.754V269.736L162.834 253.743Z" fill="#0488D0"/>
<path d="M162.834 317.708V301.719L176.687 293.722V277.733L190.543 269.736V237.754L245.965 205.772V269.736L162.834 317.708Z" fill="#175A94"/>
<path d="M42.1055 148.647L69.818 132.654L125.237 164.633L180.662 132.654L208.371 148.647L125.237 196.618L42.1055 148.647Z" fill="#1C71BB"/>
<path d="M208.371 148.647V180.629L152.949 212.608V244.591L139.093 252.587V268.577L125.24 276.573L125.236 196.619L208.371 148.647Z" fill="#175A94"/>
<path d="M42.1055 148.647V180.629L97.5273 212.612V244.591L111.384 252.587V268.577L125.237 276.573V196.619L42.1055 148.647Z" fill="#0488D0"/>
<path d="M111.382 300.559L111.379 284.566L83.6699 300.559V316.548L111.382 300.559Z" fill="#175A94"/>
<path d="M111.38 284.566L97.527 276.573L69.8145 292.562L83.6707 300.559L111.38 284.566Z" fill="#1C71BB"/>
<path d="M97.5265 260.58L83.6703 252.587L55.9609 268.576L69.814 276.573L97.5265 260.58Z" fill="#1C71BB"/>
<path d="M83.6703 220.605L28.2484 188.622L0.539062 204.612L55.9609 236.594L83.6703 220.605Z" fill="#1C71BB"/>
<path d="M97.527 276.573V260.58L69.8145 276.573V292.562L97.527 276.573Z" fill="#175A94"/>
<path d="M83.6703 252.584V220.604L55.9609 236.594V268.576L83.6703 252.584Z" fill="#175A94"/>
<path d="M83.6703 316.548V300.559L69.814 292.562V276.573L55.9609 268.576V236.594L0.539062 204.612V268.576L83.6703 316.548Z" fill="#0488D0"/>
<path d="M83.6699 108.669L83.6731 124.658L125.236 148.644V132.654L83.6699 108.669Z" fill="#0488D0"/>
<path d="M166.805 108.671L166.802 124.661L125.236 148.647V132.657L166.805 108.671Z" fill="#175A94"/>
<path d="M83.6699 108.668L125.236 84.6793L166.804 108.672L125.236 132.657L83.6699 108.668Z" fill="#1C71BB"/>
<path d="M125.271 108.668V82.3484L158.941 63.9511L125.271 108.668Z" fill="#A50952"/>
<path d="M125.27 82.3054L91.7451 63.8603L125.27 45.5061L158.94 63.8439L125.27 82.3054Z" fill="#FF9BB7"/>
<path d="M125.27 82.3507L91.7451 63.9057L125.27 108.607V82.3507Z" fill="#FD3F74"/>
<path d="M91.6309 45.1452L125.269 0.293274V63.6262L91.6309 45.1452Z" fill="#FF9BB7"/>
<path d="M158.849 45.1332L125.242 0.28125V63.6142L158.849 45.1332Z" fill="#FD3F74"/>
</svg>
