<svg width="204" height="230" viewBox="0 0 204 230" fill="none" xmlns="http://www.w3.org/2000/svg">
<path d="M0.830078 117.721V108.046L34.2456 127.393V137.065L0.830078 117.721Z" fill="#1C71BB"/>
<path d="M34.2451 127.393V137.065L51.067 127.282V117.658L34.2451 127.393Z" fill="#175A94"/>
<path d="M203.137 111.883L169.818 131.099V140.771L203.137 121.555V111.883Z" fill="#175A94"/>
<path d="M169.818 131.099V140.771L153.012 131.23V121.555L169.818 131.099Z" fill="#1C71BB"/>
<path d="M54.3139 138.655L20.8984 158.002L104.543 206.381L179.493 162.836L154.56 148.327L54.3139 138.655Z" fill="#0488D0"/>
<path d="M104.347 195.332V163.123L48.6006 130.751V163.497L104.347 195.332Z" fill="#1C71BB"/>
<path d="M104.347 163.123V195.332L153.899 166.645V134.436L104.347 163.123Z" fill="#175A94"/>
<path d="M85.6455 144.729L85.7374 144.89H85.9237L85.6455 144.729Z" fill="#0488D0"/>
<path d="M153.9 134.436L104.347 163.123L48.6006 130.751L61.0917 123.542L104.347 148.582L140.936 127.401L141.343 127.164L141.353 127.169L147.537 130.751L153.9 134.436Z" fill="#0488D0"/>
<path d="M54.7949 127.067V119.895L104.347 148.582L104.329 155.765L54.7949 127.067Z" fill="#1C71BB"/>
<path d="M147.704 123.482V130.654L147.536 130.751L104.328 155.765L104.347 148.582L140.935 127.401L141.342 127.164L147.699 123.485L147.704 123.482Z" fill="#175A94"/>
<path d="M147.7 123.485L141.343 127.164L140.936 127.401L104.347 148.582L61.0914 123.542L54.792 119.895L60.9864 116.31L67.291 119.963L98.1526 102.15L135.151 123.579L141.511 119.895L147.7 123.485Z" fill="#0488D0"/>
<path d="M60.9893 109.138L98.1529 87.6224L141.511 112.723L104.347 134.233L60.9893 109.138Z" fill="#0488D0"/>
<path d="M104.543 206.381L104.438 216.035L179.624 172.509V162.836L104.543 206.381Z" fill="#175A94"/>
<path d="M104.438 216.035L20.8984 167.674V158.002L104.543 206.381L104.438 216.035Z" fill="#1C71BB"/>
<path d="M52.8711 195.89L19.5527 215.103V224.775L52.8711 205.563V195.89Z" fill="#175A94"/>
<path d="M19.5523 215.103V224.775L2.74609 215.235V205.562L19.5523 215.103Z" fill="#1C71BB"/>
<path d="M147.091 209.971V200.299L180.506 219.643V229.318L147.091 209.971Z" fill="#1C71BB"/>
<path d="M180.506 219.643V229.318L197.328 219.533V209.908L180.506 219.643Z" fill="#175A94"/>
<path d="M34.2456 127.393L51.0675 117.658L17.4709 98.4053L0.830078 108.046L34.2456 127.393Z" fill="#0488D0"/>
<path d="M19.5523 215.103L2.74609 205.563L36.1642 186.216L52.8706 195.89L19.5523 215.103Z" fill="#0488D0"/>
<path d="M169.818 131.099L153.012 121.555L186.427 102.211L203.136 111.883L169.818 131.099Z" fill="#0488D0"/>
<path d="M180.506 219.643L197.328 209.908L163.732 190.658L147.091 200.299L180.506 219.643Z" fill="#0488D0"/>
<path d="M104.347 134.233L141.51 112.723V119.895L104.328 141.416L104.347 134.233Z" fill="#175A94"/>
<path d="M60.9893 116.31V109.138L104.347 134.233L104.329 141.416L60.9893 116.31Z" fill="#1C71BB"/>
<path d="M102.016 109.138V82.8182L135.686 64.4209L102.016 109.138Z" fill="#A50952"/>
<path d="M102.015 82.7751L68.4902 64.3301L102.015 45.9758L135.685 64.3137L102.015 82.7751Z" fill="#FF9BB7"/>
<path d="M102.015 82.8205L68.4902 64.3755L102.015 109.076V82.8205Z" fill="#FD3F74"/>
<path d="M68.376 45.6149L102.014 0.763031V64.096L68.376 45.6149Z" fill="#FF9BB7"/>
<path d="M135.594 45.6029L101.988 0.751007V64.0839L135.594 45.6029Z" fill="#FD3F74"/>
</svg>
