<svg width="512" height="512" viewBox="0 0 512 512" fill="none" xmlns="http://www.w3.org/2000/svg">
<path d="M256 455.84L321.328 361.44L256 252.64L190.672 361.44L256 455.84ZM283.2 360.256L256 399.632L228.8 360.256L256 314.832L283.2 360.256Z" fill="#333333"/>
<path d="M448 384H416V416H448V384Z" fill="#333333"/>
<path d="M448 320H416V352H448V320Z" fill="#333333"/>
<path d="M416 192V160C416 71.634 344.366 0 256 0C167.634 0 96 71.634 96 160V192H64V512H448V448H416V480H96V224H416V288H448V192H416ZM320 192H192V160C192 124.654 220.654 96 256 96C291.346 96 320 124.654 320 160V192ZM384 192H352V160C352 106.981 309.019 64 256 64C202.981 64 160 106.981 160 160V192H128V160C128 89.308 185.308 32 256 32C326.692 32 384 89.308 384 160V192Z" fill="#333333"/>
</svg>
