<svg width="699" height="229" viewBox="0 0 699 229" fill="none" xmlns="http://www.w3.org/2000/svg">
<path d="M164.756 72.965L156.936 187.115L82.4059 228.635L7.8659 187.115L0.0458984 72.965L21.1959 138.935L36.8859 123.325L46.4959 129.855C45.4859 131.325 44.7259 132.985 44.2759 134.755C44.2459 134.855 44.2259 134.945 44.2059 135.045C37.4559 137.035 32.5259 143.275 32.5259 150.665C32.5259 152.795 32.9359 154.825 33.6759 156.685L18.0759 188.135L43.3359 183.525C43.8659 194.665 53.0759 203.535 64.3459 203.535C64.4959 203.535 64.6459 203.525 64.7859 203.525C68.5459 209.265 75.0259 213.055 82.4059 213.055C89.7859 213.055 96.2559 209.265 100.016 203.525C100.156 203.525 100.306 203.535 100.456 203.535C111.726 203.535 120.936 194.665 121.466 183.525L146.726 188.135L131.126 156.685C131.866 154.825 132.276 152.795 132.276 150.665C132.276 143.275 127.346 137.035 120.596 135.045C120.576 134.945 120.546 134.855 120.526 134.755C120.066 132.985 119.306 131.325 118.306 129.855L127.916 123.325L143.606 138.945L164.756 72.965Z" fill="#034177"/>
<path d="M164.756 72.965L142.166 103.835L127.916 123.325C118.636 114.045 115.406 111.825 108.986 109.775C102.746 95.415 82.4062 48.215 82.4062 48.215V0.61499L127.556 87.545L128.526 34.395L140.696 90.505L150.806 83.135L153.916 80.865L164.756 72.965Z" fill="#034177"/>
<path d="M164.756 72.965L143.606 138.945L127.916 123.325L142.166 103.845L164.756 72.965Z" fill="#FFFDFE"/>
<path d="M143.606 138.945L127.916 123.325L142.166 103.845L143.606 138.945Z" fill="#7EEDFF"/>
<path d="M155.766 66.595L153.916 80.865L150.816 83.135L146.086 72.795L155.766 66.595Z" fill="#034177"/>
<path d="M150.816 83.135L140.706 90.515L128.526 34.405L146.086 72.795L150.816 83.135Z" fill="#0BA5D7"/>
<path d="M21.2059 138.945H21.1959L0.0458984 72.965L21.1959 138.935L21.2059 138.945Z" fill="#034177"/>
<path d="M82.4059 0.61499V48.215C82.4059 48.215 62.0559 95.415 55.8159 109.775C49.3959 111.825 46.1559 114.045 36.8859 123.325L22.6359 103.845L0.0458984 72.965L10.8759 80.855L10.8859 80.865L13.9859 83.125L13.9959 83.135L24.0959 90.495H24.1059L31.8759 54.675L36.2659 34.405L37.2359 87.535L82.3959 0.63499V0.61499H82.4059Z" fill="#034177"/>
<path d="M36.8859 123.325L21.2059 138.945H21.1959L0.0458984 72.965L22.6359 103.845L36.8859 123.325Z" fill="#FFFDFE"/>
<path d="M36.8863 123.325L21.2063 138.945H21.1963V138.935L22.6363 103.845L36.8863 123.325Z" fill="#0BA5D7"/>
<path d="M9.0459 66.595L10.8859 80.865L13.9959 83.135L18.7159 72.795L9.0459 66.595Z" fill="#034177"/>
<path d="M13.9961 83.135L24.1061 90.515L36.2761 34.405L18.7161 72.795L13.9961 83.135Z" fill="#FFFDFE"/>
<path d="M82.4061 0.61499V48.225L37.2461 87.545L82.4061 0.61499Z" fill="#0BA5D7"/>
<path d="M109.526 143.085L114.346 153.775V153.905H114.356V153.775L109.526 143.085ZM100.666 184.345L110.146 182.425H110.156L100.666 184.345ZM104.746 129.995C105.336 129.945 105.966 129.945 106.616 130.035C105.966 129.945 105.346 129.935 104.746 129.995ZM96.6359 142.595L84.3459 149.515L96.6359 142.605L104.786 145.435L96.6359 142.595ZM102.726 130.415C103.106 130.295 103.516 130.185 103.946 130.105C103.506 130.175 103.106 130.285 102.726 130.415ZM100.656 184.345L94.8659 190.505H94.8759L100.666 184.345H100.656ZM98.9959 132.075C99.5959 131.795 100.336 131.435 101.206 131.035C100.336 131.425 99.5959 131.775 98.9959 132.075ZM98.8259 122.125C98.8259 122.125 98.8259 122.175 98.8559 122.205C99.0059 122.495 99.1459 122.805 99.2759 123.095C99.1359 122.785 98.9959 122.445 98.8259 122.125ZM88.9259 117.505C88.8659 117.515 88.8159 117.525 88.7559 117.545C88.8059 117.535 88.8659 117.525 88.9259 117.515C89.6359 117.395 90.3459 117.365 91.0459 117.395C90.3459 117.345 89.6359 117.385 88.9259 117.505ZM75.1559 197.465L82.4559 202.225L89.6359 197.465H75.1559ZM85.7959 118.535C85.7959 118.535 85.6959 118.585 85.6459 118.615C85.8059 118.535 85.9759 118.455 86.1459 118.375C86.0259 118.425 85.9059 118.475 85.7959 118.535ZM86.3059 118.295C86.2459 118.325 86.1959 118.345 86.1459 118.375C86.2659 118.325 86.3859 118.275 86.5159 118.215C86.4459 118.245 86.3659 118.275 86.3059 118.295ZM87.0259 118.015C86.9459 118.045 86.8659 118.075 86.7859 118.105C86.9759 118.035 87.1659 117.975 87.3659 117.905C87.2459 117.945 87.1359 117.975 87.0259 118.015ZM80.6159 119.485C80.8359 119.645 81.0459 119.805 81.2259 119.945C81.0459 119.795 80.8359 119.635 80.6159 119.485ZM68.1559 142.595L57.1759 146.425L68.1559 142.605L80.4459 149.515L68.1559 142.595ZM75.8759 117.505C75.1659 117.385 74.4559 117.345 73.7559 117.395C74.4559 117.365 75.1659 117.395 75.8759 117.515C76.0659 117.545 76.2359 117.575 76.4159 117.615C76.2359 117.575 76.0659 117.535 75.8759 117.505ZM64.1359 184.345L69.9259 190.505H69.9359L64.1359 184.345ZM65.7959 132.075C66.1059 132.225 66.3659 132.365 66.5859 132.475C66.3659 132.355 66.0959 132.225 65.7959 132.075ZM65.9859 122.065C65.9259 122.195 65.8659 122.315 65.8159 122.445C65.8459 122.385 65.8759 122.325 65.9159 122.265C65.9159 122.245 65.9259 122.225 65.9459 122.205C65.9459 122.165 65.9659 122.145 65.9759 122.115C65.9859 122.095 65.9859 122.075 65.9959 122.065L66.1559 121.755L65.9859 122.065ZM65.0259 124.305C64.9859 124.425 64.9559 124.535 64.9059 124.645C64.9559 124.535 64.9959 124.425 65.0359 124.315C65.0559 124.255 65.0759 124.195 65.1059 124.135C65.0659 124.185 65.0459 124.255 65.0259 124.305ZM64.7459 125.095C64.7459 125.095 64.7359 125.125 64.7359 125.145C64.7359 125.135 64.7459 125.115 64.7559 125.095C64.7559 125.085 64.7559 125.075 64.7659 125.065C64.7559 125.075 64.7559 125.085 64.7459 125.095ZM64.6959 125.255C64.6959 125.255 64.6759 125.295 64.6759 125.315C64.6959 125.295 64.6959 125.265 64.7059 125.255C64.7059 125.235 64.7159 125.215 64.7159 125.195C64.7159 125.215 64.7059 125.235 64.6959 125.255ZM64.1459 127.105V127.285H64.1659V127.105V127.075L64.1459 127.105ZM54.6359 182.415V182.425L64.1259 184.345L54.6259 182.415H54.6359ZM58.1859 130.035C58.8359 129.945 59.4659 129.945 60.0559 129.995C59.4659 129.935 58.8359 129.945 58.1859 130.035ZM55.2559 153.715H55.2759L57.1759 146.425L55.2559 153.715Z" fill="#034177"/>
<path d="M126.406 150.615C126.406 145.895 124.326 141.655 121.036 138.755V138.725C121.036 137.455 120.886 136.225 120.596 135.045C120.576 134.945 120.546 134.855 120.526 134.755C120.066 132.985 119.306 131.325 118.306 129.855C118.276 129.815 118.256 129.775 118.226 129.735C115.696 126.095 111.676 123.555 107.046 123.025C106.366 119.365 104.416 116.125 101.666 113.825C98.9265 111.515 95.3865 110.125 91.5165 110.125C90.0965 110.125 88.7365 110.315 87.4365 110.655V102.355C87.4365 101.165 87.1165 100.265 86.4865 99.655C85.8465 99.055 84.9165 98.765 83.7065 98.795L77.4565 99.085V105.065L80.6165 104.805V111.935C78.4265 110.775 75.9365 110.125 73.2865 110.125C65.5565 110.125 59.1265 115.685 57.7565 123.025C55.4465 123.305 53.2865 124.055 51.3765 125.215C49.4865 126.375 47.8465 127.905 46.5765 129.735C46.5465 129.775 46.5165 129.815 46.4965 129.855C45.4865 131.325 44.7265 132.985 44.2765 134.755C44.2465 134.855 44.2265 134.945 44.2065 135.045C43.9165 136.225 43.7665 137.455 43.7665 138.725V138.755C40.4765 141.655 38.3965 145.895 38.3965 150.615C38.3965 153.905 39.3965 156.945 41.1165 159.475C39.7865 161.795 39.0265 164.465 39.0265 167.315C39.0265 174.025 43.2165 179.755 49.1165 182.045C49.3765 190.535 56.3465 197.345 64.8965 197.345C65.8965 197.345 66.8665 197.245 67.8165 197.065C69.0065 199.925 71.0065 202.355 73.5365 204.065C76.0665 205.775 79.1165 206.785 82.3965 206.785C88.9765 206.785 94.5965 202.785 96.9865 197.065C97.9265 197.245 98.9065 197.345 99.9065 197.345C108.456 197.345 115.426 190.535 115.686 182.045C121.586 179.755 125.776 174.025 125.776 167.315C125.776 164.465 125.016 161.795 123.686 159.475C125.406 156.945 126.406 153.905 126.406 150.615ZM101.786 130.775C102.066 130.645 102.386 130.525 102.726 130.415C103.106 130.285 103.506 130.175 103.946 130.105C103.976 130.105 103.996 130.105 104.016 130.105C104.256 130.055 104.506 130.025 104.746 130.005C105.346 129.945 105.966 129.955 106.616 130.045C106.996 130.095 107.386 130.175 107.776 130.285C108.556 130.505 109.356 130.855 110.156 131.385H110.166C110.426 131.565 110.696 131.755 110.956 131.975C111.216 132.175 111.486 132.415 111.746 132.685H111.756C112.026 132.945 112.276 133.225 112.526 133.515C112.796 133.835 113.056 134.165 113.316 134.535C113.476 134.775 113.656 135.025 113.816 135.285C114.656 136.615 115.186 138.155 115.486 139.795C115.756 141.255 115.846 142.785 115.816 144.265C115.816 144.435 115.816 144.595 115.806 144.755C115.776 145.925 115.666 147.065 115.536 148.105C115.486 148.365 115.456 148.625 115.426 148.875C115.316 149.575 115.196 150.235 115.086 150.825C115.046 151.065 115.006 151.275 114.946 151.495C114.876 151.865 114.786 152.205 114.726 152.505C114.716 152.545 114.696 152.585 114.686 152.615C114.666 152.695 114.646 152.775 114.636 152.845C114.596 152.995 114.566 153.125 114.536 153.245C114.516 153.305 114.506 153.355 114.496 153.405C114.496 153.405 114.493 153.415 114.486 153.435C114.456 153.535 114.426 153.625 114.406 153.705C114.406 153.715 114.406 153.735 114.406 153.745C114.396 153.775 114.386 153.795 114.386 153.815C114.376 153.865 114.366 153.885 114.366 153.905H114.356V153.785L109.536 143.095L97.5465 139.315V132.825C97.5465 132.825 98.0865 132.535 99.0065 132.085C99.6065 131.785 100.346 131.435 101.216 131.045C101.396 130.955 101.596 130.865 101.796 130.785L101.786 130.775ZM109.526 153.715L100.526 163.255H100.496L84.3465 154.585V149.515L96.6365 142.595L104.786 145.435L107.616 146.425H107.626L108.636 150.285L109.526 153.715ZM64.1465 127.105C64.1465 127.105 64.1465 127.105 64.1665 127.075C64.1665 127.055 64.1765 127.005 64.1965 126.955C64.2065 126.895 64.2265 126.815 64.2565 126.705C64.3365 126.415 64.4565 125.985 64.6365 125.445C64.6465 125.395 64.6565 125.355 64.6765 125.315C64.6765 125.295 64.6765 125.275 64.6965 125.255C64.7065 125.235 64.7165 125.215 64.7165 125.195C64.7265 125.175 64.7265 125.165 64.7365 125.145C64.7365 125.125 64.7465 125.115 64.7465 125.095C64.7565 125.085 64.7565 125.075 64.7665 125.065C64.7865 124.975 64.8265 124.885 64.8565 124.805C64.8765 124.745 64.8865 124.695 64.9065 124.645C64.9565 124.535 64.9865 124.425 65.0265 124.305C65.0465 124.255 65.0665 124.185 65.1065 124.135C65.1265 124.065 65.1465 124.015 65.1665 123.945C65.1765 123.925 65.1765 123.915 65.1865 123.905C65.1865 123.885 65.1965 123.865 65.2065 123.845C65.2265 123.805 65.2465 123.765 65.2565 123.735C65.2865 123.655 65.3165 123.575 65.3565 123.495C65.4165 123.335 65.4865 123.185 65.5465 123.015C65.5965 122.895 65.6565 122.785 65.7165 122.655C65.7465 122.585 65.7765 122.515 65.8165 122.445C65.8665 122.315 65.9265 122.195 65.9865 122.065L66.1565 121.755C66.2265 121.615 66.3065 121.475 66.3865 121.345C66.7165 120.825 67.1365 120.325 67.6465 119.885C67.7465 119.785 67.8465 119.685 67.9665 119.605C68.0765 119.505 68.1965 119.415 68.3165 119.335C68.5565 119.155 68.8065 118.995 69.0565 118.835C69.3165 118.675 69.5865 118.515 69.8765 118.395C70.4265 118.135 71.0065 117.905 71.6165 117.745C71.8065 117.675 72.0165 117.625 72.2165 117.585C72.4265 117.535 72.6265 117.505 72.8365 117.485C72.9465 117.465 73.0365 117.445 73.1465 117.435C73.3465 117.415 73.5465 117.395 73.7565 117.395C74.4565 117.345 75.1665 117.385 75.8765 117.505C76.0665 117.535 76.2365 117.575 76.4165 117.615C76.5865 117.655 76.7565 117.695 76.9265 117.745C76.9765 117.755 77.0165 117.765 77.0765 117.785C77.2265 117.835 77.3765 117.885 77.5165 117.925C77.7665 118.005 78.0265 118.095 78.2665 118.195C78.5065 118.295 78.7265 118.395 78.9465 118.505C79.0865 118.575 79.2265 118.635 79.3665 118.725C79.8365 118.965 80.2465 119.225 80.6165 119.485C80.8365 119.635 81.0465 119.795 81.2265 119.945C81.4165 120.095 81.5765 120.225 81.7165 120.355C81.7765 120.405 81.8265 120.455 81.8765 120.495L81.9665 120.585C82.0365 120.655 82.1065 120.715 82.1465 120.765C82.2065 120.815 82.2565 120.865 82.2865 120.915C82.3165 120.945 82.3565 120.975 82.3665 120.995L82.3965 121.025C82.3965 121.025 82.3965 121.015 82.4265 120.995C82.4365 120.975 82.4765 120.945 82.5065 120.915C82.5265 120.895 82.5465 120.865 82.5665 120.845C82.5865 120.815 82.6165 120.795 82.6465 120.765C82.6865 120.715 82.7565 120.655 82.8265 120.585C82.8565 120.555 82.9065 120.525 82.9465 120.475C83.2865 120.155 83.7765 119.745 84.4265 119.325C84.6265 119.195 84.8165 119.065 85.0365 118.945C85.2065 118.845 85.3865 118.745 85.5665 118.655C85.5965 118.635 85.6165 118.625 85.6465 118.615C85.6965 118.585 85.7465 118.555 85.7965 118.535C85.9065 118.475 86.0265 118.425 86.1465 118.375C86.1965 118.345 86.2465 118.325 86.3065 118.295C86.3665 118.275 86.4465 118.245 86.5165 118.215C86.5865 118.185 86.6565 118.155 86.7265 118.135C86.7465 118.125 86.7665 118.115 86.7865 118.105C86.8665 118.075 86.9465 118.045 87.0265 118.015C87.1365 117.975 87.2465 117.945 87.3665 117.905C87.3865 117.895 87.4165 117.885 87.4365 117.885C87.5465 117.835 87.6665 117.805 87.7965 117.775C87.8265 117.765 87.8565 117.755 87.8765 117.755C87.9765 117.715 88.0765 117.695 88.1865 117.675C88.3165 117.645 88.4565 117.605 88.5965 117.575C88.6465 117.565 88.7065 117.545 88.7565 117.545C88.8165 117.525 88.8665 117.515 88.9265 117.505C89.6365 117.385 90.3465 117.345 91.0465 117.395C91.2565 117.395 91.4565 117.415 91.6565 117.435C91.7665 117.445 91.8565 117.465 91.9665 117.485C92.1765 117.505 92.3765 117.535 92.5865 117.585C92.7865 117.625 92.9965 117.675 93.1865 117.745C94.0165 117.955 94.7765 118.285 95.4865 118.685C95.8365 118.875 96.1765 119.095 96.4865 119.335C96.6065 119.415 96.7265 119.505 96.8365 119.605C96.9565 119.685 97.0665 119.785 97.1565 119.885C97.6665 120.325 98.0865 120.825 98.4165 121.345C98.4965 121.475 98.5765 121.615 98.6465 121.755C98.7065 121.855 98.7465 121.955 98.8065 122.055C98.8065 122.055 98.8165 122.085 98.8265 122.115C98.9965 122.445 99.1365 122.785 99.2765 123.095C99.4065 123.385 99.5265 123.665 99.6365 123.945C99.7065 124.155 99.7865 124.345 99.8565 124.545C99.9465 124.795 100.026 125.035 100.096 125.255C100.126 125.325 100.146 125.375 100.166 125.445C100.486 126.445 100.636 127.105 100.636 127.105V127.295L97.7165 128.925C97.7165 128.925 97.1565 128.575 93.6365 126.755C93.1065 126.465 92.5265 126.225 91.9465 125.985C91.6965 125.875 91.4365 125.785 91.1865 125.695C90.9265 125.595 90.6765 125.505 90.4165 125.415H90.3965C90.3165 125.385 90.2365 125.365 90.1565 125.335C90.0765 125.315 90.0065 125.285 89.9365 125.265C89.7865 125.215 89.6265 125.175 89.4665 125.115C89.0665 124.985 88.6565 124.875 88.2665 124.775C88.1865 124.745 88.0965 124.725 88.0165 124.705C87.8465 124.655 87.6765 124.605 87.5065 124.575C87.3965 124.545 87.2865 124.515 87.1665 124.485C86.8865 124.415 86.6065 124.365 86.3465 124.305L95.1965 131.625L82.4065 138.205V146.845L69.8865 140.605L69.6165 131.625L78.4765 124.305C78.0765 124.395 77.6565 124.485 77.2165 124.595C77.1365 124.615 77.0665 124.635 76.9965 124.655C76.9265 124.675 76.8565 124.695 76.7765 124.715C76.5465 124.775 76.3165 124.835 76.0765 124.905H76.0665C75.8265 124.975 75.6065 125.045 75.3665 125.115C75.1365 125.185 74.9165 125.255 74.6865 125.335C74.5865 125.355 74.4965 125.385 74.4065 125.415C74.3365 125.435 74.2665 125.465 74.1965 125.495C74.1265 125.515 74.0565 125.545 73.9765 125.575C73.9765 125.575 73.9565 125.575 73.9465 125.585C73.6765 125.675 73.4065 125.775 73.1465 125.875C73.0065 125.925 72.8765 125.985 72.7365 126.035C72.6065 126.095 72.4665 126.145 72.3365 126.205C72.2765 126.235 72.2365 126.255 72.1765 126.275C72.1565 126.275 72.1365 126.295 72.1065 126.305C72.0865 126.325 72.0565 126.335 72.0365 126.345C72.0165 126.365 71.9865 126.365 71.9665 126.375C71.8465 126.425 71.7365 126.475 71.6165 126.535C71.4765 126.605 71.3165 126.675 71.1765 126.755C70.3565 127.175 69.6965 127.515 69.1665 127.795C68.9865 127.895 68.8265 127.985 68.6665 128.065L68.3365 128.245C68.2165 128.305 68.1165 128.355 68.0165 128.415C67.7965 128.535 67.6265 128.625 67.4965 128.695C67.3665 128.775 67.2765 128.815 67.2165 128.855C67.1765 128.875 67.1465 128.895 67.1265 128.905C67.1165 128.905 67.1065 128.905 67.1065 128.905L64.1865 127.285H64.1665V127.095L64.1465 127.105ZM80.4465 149.515V154.585L64.2765 163.255L55.2765 153.725H55.2565L57.1765 146.425L68.1565 142.595L80.4465 149.515ZM49.3165 139.785C49.4165 139.165 49.5765 138.575 49.7565 137.985C49.8765 137.595 50.0165 137.215 50.1665 136.855C50.3165 136.485 50.4965 136.125 50.6865 135.785C50.7865 135.605 50.8765 135.435 50.9865 135.275C51.6465 134.225 52.3265 133.375 53.0465 132.685L53.0565 132.675C53.3165 132.405 53.5865 132.165 53.8465 131.965C54.1065 131.745 54.3765 131.555 54.6365 131.375H54.6465C55.4465 130.845 56.2465 130.495 57.0265 130.275C57.4165 130.165 57.8065 130.085 58.1865 130.035C58.8365 129.945 59.4665 129.935 60.0565 129.995C60.2965 130.015 60.5465 130.045 60.7865 130.095C60.8065 130.095 60.8265 130.095 60.8565 130.095C61.2865 130.165 61.6965 130.275 62.0765 130.405C62.4065 130.515 62.7265 130.635 63.0065 130.765C64.1165 131.255 65.0665 131.705 65.7965 132.065C66.0965 132.215 66.3665 132.345 66.5865 132.465C67.0165 132.675 67.2565 132.805 67.2565 132.805V139.295L55.2765 143.075L50.4465 153.765V153.895C50.4465 153.895 48.1265 146.215 49.3165 139.775V139.785ZM46.7365 170.305C46.7365 170.305 45.3865 167.695 47.2165 163.065C49.0365 158.435 52.1465 158.605 52.1465 158.605L60.9065 167.825L61.1865 175.035C61.1865 175.035 52.8365 176.405 46.7365 170.305ZM69.9365 190.515H60.5465L57.8465 186.805L54.6365 182.425L64.1365 184.345L69.9365 190.505V190.515ZM82.4565 202.225L75.1565 197.465H89.6365L82.4565 202.225ZM82.3965 192.785L65.7765 175.165L65.2565 167.385L65.2665 167.375L82.3965 157.855L99.5365 167.375H99.5465L99.0265 175.165L82.3965 192.785ZM104.246 190.505L94.8665 190.515L100.656 184.345H100.666L110.156 182.415L110.176 182.425L104.256 190.505H104.246ZM118.066 170.305C111.966 176.405 103.616 175.035 103.616 175.035L103.896 167.825L112.656 158.605C112.656 158.605 115.776 158.435 117.586 163.065C119.416 167.695 118.066 170.305 118.066 170.305Z" fill="#034177"/>
<path d="M108.986 109.775C102.746 95.415 82.4057 48.215 82.4057 48.215C82.4057 48.215 62.0557 95.415 55.8157 109.775C49.3957 111.825 46.1557 114.045 36.8857 123.325L46.4957 129.855C46.4957 129.855 46.5457 129.775 46.5757 129.735C47.8457 127.905 49.4857 126.375 51.3757 125.215C53.2857 124.055 55.4457 123.305 57.7557 123.025C59.1257 115.685 65.5557 110.125 73.2857 110.125C75.9357 110.125 78.4257 110.775 80.6157 111.935V104.805L77.4557 105.065V99.085L83.7057 98.795C84.9157 98.765 85.8457 99.055 86.4857 99.655C87.1157 100.265 87.4357 101.165 87.4357 102.355V110.655C88.7357 110.315 90.0957 110.125 91.5157 110.125C95.3857 110.125 98.9257 111.515 101.666 113.825C104.416 116.125 106.366 119.365 107.046 123.025C111.676 123.555 115.696 126.095 118.226 129.735C118.256 129.775 118.276 129.815 118.306 129.855L127.916 123.325C118.636 114.045 115.406 111.825 108.986 109.775ZM86.4657 96.055C85.7857 96.615 84.8557 96.885 83.6557 96.885C82.4557 96.885 81.5357 96.615 80.8857 96.075C80.2257 95.525 79.9057 94.735 79.9057 93.695C79.9057 92.655 80.2357 91.905 80.9057 91.345C81.5657 90.785 82.4857 90.505 83.6557 90.505C84.8257 90.505 85.7857 90.785 86.4657 91.345C87.1457 91.905 87.4857 92.685 87.4857 93.695C87.4857 94.705 87.1457 95.495 86.4657 96.055Z" fill="white"/>
<path d="M146.726 188.135L121.466 183.525C120.936 194.665 111.726 203.535 100.456 203.535C100.306 203.535 100.156 203.525 100.016 203.525C96.2562 209.265 89.7762 213.055 82.4062 213.055C75.0362 213.055 68.5462 209.265 64.7862 203.525C64.6462 203.525 64.4962 203.535 64.3462 203.535C53.0762 203.535 43.8662 194.665 43.3362 183.525L18.0762 188.135L33.6762 156.685C32.9362 154.825 32.5262 152.795 32.5262 150.665C32.5262 143.275 37.4562 137.035 44.2062 135.045C43.9162 136.225 43.7662 137.455 43.7662 138.725V138.755C40.4762 141.655 38.3962 145.895 38.3962 150.615C38.3962 153.905 39.3962 156.945 41.1162 159.475C39.7862 161.795 39.0262 164.465 39.0262 167.315C39.0262 174.025 43.2162 179.755 49.1162 182.045C49.3762 190.535 56.3462 197.345 64.8962 197.345C65.8962 197.345 66.8662 197.245 67.8162 197.065C69.0062 199.925 71.0062 202.355 73.5362 204.065C76.0662 205.775 79.1162 206.785 82.3962 206.785C88.9762 206.785 94.5962 202.785 96.9862 197.065C97.9262 197.245 98.9062 197.345 99.9062 197.345C108.456 197.345 115.426 190.535 115.686 182.045C121.586 179.755 125.776 174.025 125.776 167.315C125.776 164.465 125.016 161.795 123.686 159.475C125.406 156.945 126.406 153.905 126.406 150.615C126.406 145.895 124.326 141.655 121.036 138.755V138.725C121.036 137.455 120.886 136.225 120.596 135.045C127.346 137.035 132.276 143.275 132.276 150.665C132.276 152.795 131.866 154.825 131.126 156.685L146.726 188.135Z" fill="white"/>
<path d="M60.9064 167.825L46.7364 170.305C46.7364 170.305 45.3864 167.695 47.2164 163.065C49.0364 158.435 52.1464 158.605 52.1464 158.605L60.9064 167.825Z" fill="#BC0756"/>
<path d="M61.1863 175.035C61.1863 175.035 52.8363 176.405 46.7363 170.305L60.9063 167.825L61.1863 175.035Z" fill="#A30853"/>
<path d="M111.746 132.675L105.566 135.415C104.216 136.005 102.666 135.915 101.406 135.155L97.5361 132.815C97.5361 132.815 98.0761 132.525 98.9961 132.075C99.5961 131.775 100.336 131.425 101.206 131.035C101.386 130.945 101.586 130.855 101.786 130.775C102.066 130.645 102.386 130.525 102.726 130.415C103.106 130.285 103.506 130.175 103.946 130.105C103.976 130.095 103.996 130.095 104.016 130.095C104.256 130.045 104.506 130.015 104.746 129.995C105.346 129.935 105.966 129.945 106.616 130.035C106.996 130.085 107.386 130.165 107.776 130.275C108.556 130.495 109.356 130.845 110.156 131.375H110.166C110.426 131.555 110.696 131.745 110.956 131.965C111.216 132.165 111.486 132.405 111.746 132.675Z" fill="#FF3D76"/>
<path d="M107.616 146.425L97.6857 156.255L84.3457 149.515L96.6357 142.595L104.786 145.435L107.616 146.425Z" fill="#FF3D76"/>
<path d="M97.016 125.665C94.226 126.125 90.756 125.485 90.406 125.415H90.376C90.306 125.375 90.226 125.355 90.146 125.335C90.076 125.315 90.006 125.285 89.926 125.255C89.776 125.215 89.616 125.165 89.456 125.115C89.056 124.985 88.646 124.875 88.256 124.775C88.176 124.745 88.086 124.725 88.006 124.705C87.836 124.655 87.666 124.605 87.496 124.575C87.386 124.545 87.276 124.515 87.156 124.485C86.876 124.415 86.596 124.365 86.336 124.305L95.186 131.625L82.396 138.195L69.606 131.625L78.466 124.305C78.066 124.385 77.646 124.475 77.206 124.595C77.126 124.615 77.056 124.635 76.986 124.655C76.916 124.675 76.846 124.695 76.766 124.705C76.536 124.765 76.306 124.825 76.066 124.905H76.056C75.836 124.965 75.596 125.035 75.346 125.105C75.126 125.175 74.906 125.245 74.676 125.335C74.576 125.355 74.486 125.385 74.396 125.415C74.036 125.485 70.576 126.125 67.776 125.665C65.206 125.255 65.766 122.835 65.946 122.205C65.946 122.165 65.966 122.145 65.976 122.115C65.976 122.085 65.986 122.075 65.986 122.065L66.156 121.755C66.226 121.615 66.306 121.475 66.386 121.345C66.716 120.825 67.136 120.325 67.646 119.885C67.746 119.785 67.846 119.685 67.966 119.605C68.076 119.505 68.196 119.415 68.316 119.335C68.556 119.155 68.806 118.995 69.056 118.835C69.316 118.675 69.586 118.515 69.876 118.395C70.426 118.135 71.006 117.905 71.616 117.745C71.816 117.685 72.016 117.635 72.216 117.585C72.426 117.545 72.626 117.515 72.836 117.485C72.946 117.465 73.036 117.445 73.146 117.435C73.346 117.415 73.546 117.395 73.756 117.395C74.456 117.345 75.166 117.385 75.876 117.505C76.066 117.535 76.236 117.575 76.416 117.615C76.586 117.655 76.756 117.695 76.926 117.745C76.976 117.745 77.016 117.765 77.076 117.785C77.226 117.835 77.376 117.885 77.516 117.925C77.776 118.015 78.026 118.105 78.266 118.195C78.496 118.295 78.726 118.395 78.946 118.505C79.086 118.575 79.226 118.645 79.366 118.725C79.836 118.965 80.246 119.225 80.616 119.485C80.836 119.635 81.046 119.795 81.226 119.945C81.416 120.095 81.576 120.225 81.716 120.355C81.776 120.405 81.826 120.455 81.876 120.495L81.966 120.585C82.036 120.655 82.106 120.715 82.146 120.765L82.286 120.915C82.286 120.915 82.356 120.975 82.366 120.995C82.386 121.015 82.396 121.025 82.396 121.025C82.396 121.025 82.406 121.015 82.426 120.995C82.436 120.975 82.476 120.945 82.506 120.915C82.526 120.895 82.546 120.865 82.566 120.845C82.586 120.815 82.616 120.795 82.646 120.765C82.686 120.715 82.756 120.655 82.826 120.585C82.856 120.555 82.906 120.525 82.946 120.475C83.286 120.155 83.776 119.745 84.426 119.325C84.626 119.195 84.816 119.065 85.036 118.945C85.206 118.845 85.386 118.745 85.566 118.655C85.596 118.635 85.616 118.625 85.646 118.615C85.696 118.585 85.746 118.555 85.796 118.535C85.906 118.475 86.026 118.425 86.146 118.375C86.196 118.345 86.246 118.325 86.306 118.295C86.366 118.275 86.446 118.245 86.516 118.215C86.586 118.185 86.656 118.155 86.726 118.135C86.746 118.125 86.766 118.115 86.786 118.105C86.866 118.075 86.946 118.045 87.026 118.015C87.136 117.975 87.246 117.945 87.366 117.905C87.386 117.895 87.416 117.885 87.436 117.885C87.556 117.845 87.676 117.805 87.796 117.775C87.826 117.765 87.856 117.755 87.876 117.755C87.976 117.725 88.076 117.705 88.186 117.675C88.316 117.645 88.456 117.605 88.596 117.575C88.646 117.565 88.706 117.545 88.756 117.545C88.816 117.525 88.866 117.515 88.926 117.505C89.636 117.385 90.346 117.345 91.046 117.395C91.256 117.395 91.456 117.415 91.656 117.435C91.766 117.445 91.856 117.465 91.966 117.485C92.176 117.515 92.376 117.545 92.586 117.585C92.786 117.635 92.986 117.685 93.186 117.745C94.016 117.955 94.776 118.285 95.486 118.685C95.836 118.875 96.176 119.095 96.486 119.335C96.606 119.415 96.726 119.505 96.836 119.605C96.956 119.685 97.066 119.785 97.156 119.885C97.666 120.325 98.086 120.825 98.416 121.345C98.496 121.475 98.576 121.615 98.646 121.755C98.706 121.855 98.746 121.955 98.806 122.055C98.806 122.055 98.816 122.085 98.826 122.115C98.826 122.115 98.826 122.175 98.856 122.205C99.036 122.835 99.596 125.255 97.016 125.665Z" fill="#FF3D76"/>
<path d="M110.156 182.415L110.146 182.425L104.246 190.505H94.8662L100.656 184.345H100.666L110.156 182.415Z" fill="#A30853"/>
<path d="M118.066 170.305L103.896 167.825L112.656 158.605C112.656 158.605 115.776 158.435 117.586 163.065C119.416 167.695 118.066 170.305 118.066 170.305Z" fill="#BC0756"/>
<path d="M97.2365 168.415L99.5365 167.385L97.2365 170.805V170.815L82.3965 192.785V175.035L97.2365 168.415Z" fill="#BC0756"/>
<path d="M99.5461 167.375H99.5361V167.385H99.5461V167.375Z" fill="#BC0756"/>
<path d="M109.527 153.715V153.725L100.517 163.245H100.497L97.6865 156.255L107.617 146.425L108.637 150.285L109.527 153.715Z" fill="#A30853"/>
<path d="M100.496 163.245L84.3457 154.585V149.515L97.6857 156.255L100.496 163.245Z" fill="#BC0756"/>
<path d="M100.516 163.245V163.255L100.496 163.245H100.516Z" fill="#BC0756"/>
<path d="M115.816 144.255C115.816 144.425 115.816 144.585 115.806 144.745C115.776 145.915 115.666 147.055 115.536 148.095C115.486 148.355 115.456 148.615 115.426 148.865C115.316 149.565 115.196 150.225 115.086 150.815C115.036 151.055 114.996 151.265 114.946 151.485C114.866 151.855 114.786 152.195 114.726 152.495C114.716 152.535 114.696 152.575 114.686 152.605C114.666 152.685 114.646 152.765 114.636 152.835C114.596 152.985 114.566 153.115 114.536 153.235C114.516 153.295 114.506 153.345 114.496 153.395C114.496 153.395 114.493 153.405 114.486 153.425C114.456 153.525 114.426 153.615 114.406 153.695C114.396 153.705 114.396 153.725 114.396 153.735C114.396 153.765 114.376 153.785 114.376 153.805C114.366 153.855 114.356 153.875 114.356 153.895H114.346V153.775L109.526 143.085L115.486 139.785C115.756 141.245 115.846 142.775 115.816 144.255Z" fill="#A30853"/>
<path d="M115.486 139.785L109.526 143.085L97.5361 139.295V132.815L101.406 135.155C102.666 135.915 104.216 136.005 105.566 135.415L111.746 132.675H111.756C112.026 132.935 112.276 133.215 112.526 133.505C112.796 133.825 113.056 134.155 113.316 134.525C113.476 134.765 113.656 135.015 113.816 135.275C114.656 136.605 115.186 138.145 115.486 139.785Z" fill="#BC0756"/>
<path d="M99.5465 167.385L99.0265 175.165L82.3965 192.785L97.2365 170.815V170.805L99.5465 167.385Z" fill="#A30853"/>
<path d="M65.2659 167.375H65.2559V167.385H65.2659V167.375Z" fill="#BC0756"/>
<path d="M82.3966 175.035V192.785L67.5666 170.815V170.805L65.2666 167.385L67.5666 168.415L82.3966 175.035Z" fill="#BC0756"/>
<path d="M82.3959 192.785L65.7759 175.165L65.2559 167.385L67.5659 170.805V170.815L82.3959 192.785Z" fill="#BC0756"/>
<path d="M69.6064 131.625L69.8764 140.605L82.3964 146.845V138.195L69.6064 131.625Z" fill="#034177"/>
<path d="M67.2566 132.815L63.3966 135.155C62.1266 135.915 60.5866 136.005 59.2366 135.415L53.0566 132.675C53.3166 132.405 53.5866 132.165 53.8466 131.965C54.1066 131.755 54.3766 131.565 54.6366 131.375C55.4366 130.845 56.2366 130.495 57.0166 130.275C57.4066 130.165 57.7966 130.085 58.1766 130.035C58.8266 129.945 59.4566 129.935 60.0466 129.995C60.2866 130.015 60.5366 130.045 60.7766 130.095C60.7966 130.095 60.8166 130.095 60.8466 130.105C61.2766 130.185 61.6866 130.295 62.0666 130.415C62.3966 130.525 62.7166 130.645 62.9966 130.775C64.1066 131.265 65.0566 131.715 65.7866 132.075C66.0866 132.225 66.3566 132.355 66.5766 132.475C67.0066 132.685 67.2466 132.815 67.2466 132.815H67.2566Z" fill="#FF3D76"/>
<path d="M80.4458 149.515L67.1158 156.255L57.1758 146.425L68.1558 142.595L80.4458 149.515Z" fill="#FF3D76"/>
<path d="M74.3965 125.415C74.3265 125.435 74.2565 125.465 74.1865 125.495C74.1165 125.515 74.0465 125.535 73.9665 125.565C73.9565 125.575 73.9465 125.575 73.9365 125.575C73.6665 125.665 73.3965 125.765 73.1365 125.875C72.9965 125.925 72.8665 125.985 72.7265 126.035C72.5965 126.095 72.4565 126.145 72.3265 126.205C72.2665 126.235 72.2265 126.255 72.1665 126.275C72.1465 126.285 72.1265 126.295 72.0965 126.305C72.0665 126.305 72.0465 126.325 72.0165 126.335C72.0065 126.345 71.9765 126.365 71.9565 126.375C71.8365 126.425 71.7265 126.475 71.6065 126.535C71.4665 126.605 71.3065 126.675 71.1665 126.755C70.3465 127.175 69.6865 127.515 69.1565 127.795C68.9765 127.895 68.8165 127.985 68.6565 128.065C68.5465 128.125 68.4365 128.185 68.3265 128.245C68.2065 128.305 68.1065 128.355 68.0065 128.415C67.4265 128.725 67.1865 128.855 67.1165 128.905C67.1065 128.905 67.0965 128.915 67.0965 128.915H67.0865L64.1665 127.295H64.1465V127.105C64.1465 127.105 64.1465 127.095 64.1665 127.075C64.1665 127.055 64.1765 127.005 64.1965 126.955C64.2165 126.895 64.2365 126.815 64.2565 126.705C64.3365 126.415 64.4565 125.985 64.6365 125.445C64.6365 125.395 64.6565 125.355 64.6765 125.315C64.6765 125.295 64.6765 125.275 64.6965 125.255C64.6965 125.235 64.7165 125.215 64.7165 125.195C64.7265 125.175 64.7265 125.165 64.7365 125.145C64.7365 125.125 64.7465 125.115 64.7465 125.095C64.7565 125.085 64.7565 125.075 64.7665 125.065C64.7865 124.975 64.8265 124.885 64.8565 124.805C64.8765 124.745 64.8865 124.695 64.9065 124.645C64.9565 124.535 64.9865 124.425 65.0265 124.305C65.0465 124.255 65.0665 124.185 65.1065 124.135C65.1265 124.065 65.1465 124.015 65.1665 123.945C65.1765 123.925 65.1765 123.915 65.1865 123.905C65.1865 123.885 65.1965 123.865 65.2065 123.845C65.2265 123.805 65.2465 123.765 65.2565 123.735C65.2865 123.655 65.3165 123.575 65.3565 123.495C65.4165 123.335 65.4865 123.185 65.5465 123.015C65.5965 122.895 65.6565 122.785 65.7165 122.655C65.7465 122.585 65.7765 122.515 65.8165 122.445C65.8665 122.315 65.9265 122.195 65.9865 122.065C65.9865 122.075 65.9765 122.085 65.9765 122.115C65.9665 122.145 65.9565 122.165 65.9465 122.205C65.7665 122.835 65.2065 125.255 67.7765 125.665C70.5765 126.125 74.0365 125.485 74.3965 125.415Z" fill="#FF3D76"/>
<path d="M69.9357 190.505H60.5457L57.8457 186.805L54.6457 182.425H54.6357V182.415L64.1357 184.345L69.9357 190.505Z" fill="#A30853"/>
<path d="M99.5366 167.375V167.385L97.2366 168.425L82.3966 175.035L67.5666 168.425L65.2666 167.385V167.375L82.3966 157.855L99.5366 167.375Z" fill="#FF3D76"/>
<path d="M67.1159 156.255L64.2759 163.255L55.2759 153.725L55.2559 153.715L57.1759 146.425L67.1159 156.255Z" fill="#A30853"/>
<path d="M80.4464 149.515V154.585L64.2764 163.255L67.1164 156.255L80.4464 149.515Z" fill="#BC0756"/>
<path d="M55.2561 143.085L50.4461 153.775V153.905C50.4461 153.905 48.1261 146.225 49.3161 139.785L55.2561 143.085Z" fill="#A30853"/>
<path d="M67.2564 132.815V139.295L55.2764 143.085H55.2564L49.3164 139.785C49.4164 139.165 49.5764 138.575 49.7564 137.985C49.8764 137.595 50.0164 137.215 50.1664 136.855C50.3164 136.485 50.4964 136.125 50.6864 135.785C50.7864 135.605 50.8764 135.435 50.9864 135.275C51.6464 134.225 52.3264 133.375 53.0464 132.685H53.0564L59.2364 135.425C60.5864 136.015 62.1264 135.925 63.3964 135.165L67.2564 132.825V132.815Z" fill="#BC0756"/>
<path d="M82.3964 138.195V146.845L69.8764 140.605L69.6064 131.625L82.3964 138.195Z" fill="#BC0756"/>
<path d="M100.636 127.105V127.285L97.7063 128.915C97.7063 128.915 97.1463 128.575 93.6263 126.755C93.0963 126.465 92.5162 126.225 91.9362 125.985C91.6862 125.875 91.4262 125.775 91.1762 125.695C90.9162 125.595 90.6662 125.505 90.4062 125.415C90.7562 125.485 94.2263 126.125 97.0163 125.665C99.5963 125.255 99.0362 122.835 98.8562 122.205C98.8362 122.175 98.8362 122.145 98.8262 122.125C98.9962 122.445 99.1363 122.785 99.2763 123.095C99.4063 123.385 99.5262 123.665 99.6362 123.945C99.7062 124.155 99.7862 124.345 99.8562 124.545C99.9462 124.795 100.026 125.035 100.096 125.255C100.126 125.325 100.146 125.375 100.166 125.445C100.486 126.445 100.636 127.105 100.636 127.105Z" fill="#BC0756"/>
<path d="M74.3965 125.415C74.3265 125.435 74.2565 125.465 74.1865 125.495C74.1165 125.515 74.0465 125.535 73.9665 125.565C73.9565 125.575 73.9465 125.575 73.9365 125.575C73.6665 125.665 73.3965 125.765 73.1365 125.875C72.9965 125.925 72.8665 125.985 72.7265 126.035C72.5965 126.095 72.4565 126.145 72.3265 126.205C72.2665 126.235 72.2265 126.255 72.1665 126.275C72.1465 126.285 72.1265 126.295 72.0965 126.305C72.0665 126.305 72.0465 126.325 72.0165 126.335C72.0065 126.345 71.9765 126.365 71.9565 126.375C71.8365 126.425 71.7265 126.475 71.6065 126.535C71.4665 126.605 71.3065 126.675 71.1665 126.755C70.3465 127.175 69.6865 127.515 69.1565 127.795C68.9765 127.895 68.8165 127.985 68.6565 128.065C68.5465 128.125 68.4365 128.185 68.3265 128.245C68.2065 128.305 68.1065 128.355 68.0065 128.415C67.4265 128.725 67.1865 128.855 67.1165 128.905C67.1065 128.905 67.0965 128.915 67.0965 128.915H67.0865L64.1665 127.295H64.1465V127.105C64.1465 127.105 64.1465 127.095 64.1665 127.075C64.1665 127.055 64.1765 127.005 64.1965 126.955C64.2165 126.895 64.2365 126.815 64.2565 126.705C64.3365 126.415 64.4565 125.985 64.6365 125.445C64.6365 125.395 64.6565 125.355 64.6765 125.315C64.6765 125.295 64.6765 125.275 64.6965 125.255C64.6965 125.235 64.7165 125.215 64.7165 125.195C64.7265 125.175 64.7265 125.165 64.7365 125.145C64.7365 125.125 64.7465 125.115 64.7465 125.095C64.7565 125.085 64.7565 125.075 64.7665 125.065C64.7865 124.975 64.8265 124.885 64.8565 124.805C64.8765 124.745 64.8865 124.695 64.9065 124.645C64.9565 124.535 64.9865 124.425 65.0265 124.305C65.0465 124.255 65.0665 124.185 65.1065 124.135C65.1265 124.065 65.1465 124.015 65.1665 123.945C65.1765 123.925 65.1765 123.915 65.1865 123.905C65.1865 123.885 65.1965 123.865 65.2065 123.845C65.2265 123.805 65.2465 123.765 65.2565 123.735C65.2865 123.655 65.3165 123.575 65.3565 123.495C65.4165 123.335 65.4865 123.185 65.5465 123.015C65.5965 122.895 65.6565 122.785 65.7165 122.655C65.7465 122.585 65.7765 122.515 65.8165 122.445C65.8665 122.315 65.9265 122.195 65.9865 122.065C65.9865 122.075 65.9765 122.085 65.9765 122.115C65.9665 122.145 65.9565 122.165 65.9465 122.205C65.7665 122.835 65.2065 125.255 67.7765 125.665C70.5765 126.125 74.0365 125.485 74.3965 125.415Z" fill="#BC0756"/>
<path d="M118.066 170.305C111.966 176.405 103.616 175.035 103.616 175.035L103.896 167.825L118.066 170.305Z" fill="#A30853"/>
<path d="M89.6362 197.465L82.4563 202.225L75.1562 197.465H89.6362Z" fill="#A30853"/>
<path d="M87.4863 93.695C87.4863 94.715 87.1462 95.495 86.4662 96.055C85.7862 96.615 84.8563 96.885 83.6562 96.885C82.4562 96.885 81.5362 96.615 80.8862 96.075C80.2262 95.525 79.9062 94.735 79.9062 93.695C79.9062 92.655 80.2362 91.905 80.9062 91.345C81.5663 90.785 82.4863 90.505 83.6562 90.505C84.8262 90.505 85.7862 90.785 86.4662 91.345C87.1462 91.905 87.4863 92.685 87.4863 93.695Z" fill="#034177"/>
<path d="M228.291 164.625L215.756 97.4419V66.0334H235.052V93.0757L239.559 124.625L247.305 89.2729H263.221L270.967 124.343L275.474 93.0757V66.0334H294.77V97.4419L282.235 164.625H266.601L255.333 128.71L243.925 164.625H228.291Z" fill="#333333"/>
<path d="M327.423 164.625C312.352 164.625 299.958 152.09 299.958 137.019V119.273C299.958 104.062 312.352 91.6673 327.423 91.6673H338.69C353.902 91.6673 365.874 103.639 366.155 118.85V130.4H318.268V137.019C318.268 141.949 322.493 146.033 327.423 146.033H338.69C343.761 146.033 347.845 141.949 347.845 137.019V135.611H366.155V137.019C366.155 152.231 353.902 164.625 338.69 164.625H327.423ZM318.268 121.245H347.845V119.273C347.845 114.062 343.902 110.118 338.69 110.118H327.423C322.352 110.118 318.268 114.202 318.268 119.273V121.245Z" fill="#333333"/>
<path d="M404.317 164.625L393.19 157.16V164.625H374.88V64.625H393.19V99.132L404.317 91.6673H413.612C428.683 91.6673 441.077 104.062 441.077 119.273V137.16C441.077 152.231 428.683 164.625 413.612 164.625H404.317ZM393.19 134.907L409.95 146.174H413.612C418.542 146.174 422.767 142.09 422.767 137.16V119.273C422.767 114.202 418.542 110.118 413.612 110.118H409.95L393.19 121.386V134.907Z" fill="#333333"/>
<path d="M495.889 164.625C480.819 164.625 468.424 152.231 468.424 137.16V132.231H486.875V137.16C486.875 142.09 490.959 146.174 495.889 146.174H507.157C512.368 146.174 516.312 142.231 516.312 137.16V133.357C516.312 128.146 512.368 124.202 507.157 124.202H497.297V105.752H507.157C512.368 105.752 516.312 101.808 516.312 96.7377V93.4982C516.312 88.4278 512.368 84.4842 507.157 84.4842H495.889C490.959 84.4842 486.875 88.5687 486.875 93.4982V98.4278H468.424V93.4982C468.424 78.4278 480.819 66.0334 495.889 66.0334H507.157C522.509 66.0334 534.762 78.287 534.762 93.4982V96.7377C534.762 103.78 532.086 110.118 527.861 115.048C532.086 119.836 534.762 126.315 534.762 133.357V137.16C534.762 152.371 522.509 164.625 507.157 164.625H495.889Z" fill="#333333"/>
<path d="M565.388 164.625V66.0334H604.121C619.473 66.0334 631.586 78.287 631.586 93.4982V101.949C631.586 117.301 619.473 129.555 604.121 129.555H583.698V164.625H565.388ZM583.698 111.104H604.121C609.332 111.104 613.276 107.16 613.276 101.949V93.4982C613.276 88.4278 609.332 84.4842 604.121 84.4842H583.698V111.104Z" fill="#333333"/>
<path d="M635.518 164.625V146.174H657.772V110.118H625.303V91.6673H676.082V146.174H698.194V164.625H635.518ZM657.208 81.6673V64.625H676.082V81.6673H657.208Z" fill="#333333"/>
</svg>
