<svg width="512" height="512" viewBox="0 0 512 512" fill="none" xmlns="http://www.w3.org/2000/svg">
<g clip-path="url(#clip0_3922_2546)">
<path d="M94.5664 414.933V417.433H97.0664H414.933H416H418.5V414.933V97.0667V94.5667H416H97.0664H94.5664V97.0667V414.933ZM392.166 391.1H120.9V120.9H392.166V391.1Z" fill="#333333" stroke="#333333" stroke-width="5"/>
<path d="M151.102 358.4V360.9H153.602H354.835H357.335H358.402V358.4H359.835V153.6V151.1H357.335H153.602H151.102V153.6V358.4ZM333.502 177.433V334.567H177.435V177.433H333.502Z" fill="#333333" stroke="#333333" stroke-width="5"/>
<path d="M192.001 110.233H194.501V107.733V5.33333V2.83333H192.001H138.668H136.168V5.33333V26.6667V29.1667H138.668H168.168V107.733V110.233H170.668H192.001Z" fill="#333333" stroke="#333333" stroke-width="5"/>
<path d="M245.334 13.5H242.834V16V107.733V110.233H245.334H266.667H269.167V107.733V16V13.5H266.667H245.334Z" fill="#333333" stroke="#333333" stroke-width="5"/>
<path d="M341.333 110.233H343.833V107.733V29.1667H373.333H375.833V26.6667V5.33333V2.83333H373.333H320H317.5V5.33333V107.733V110.233H320H341.333Z" fill="#333333" stroke="#333333" stroke-width="5"/>
<path d="M192.001 509.167H194.501V506.667V404.267V401.767H192.001H170.668H168.168V404.267V482.833H138.668H136.168V485.333V506.667V509.167H138.668H192.001Z" fill="#333333" stroke="#333333" stroke-width="5"/>
<path d="M245.334 401.767H242.834V404.267V496V498.5H245.334H266.667H269.167V496V404.267V401.767H266.667H245.334Z" fill="#333333" stroke="#333333" stroke-width="5"/>
<path d="M373.333 509.167H375.833V506.667V485.333V482.833H373.333H343.833V404.267V401.767H341.333H320H317.5V404.267V506.667V509.167H320H373.333Z" fill="#333333" stroke="#333333" stroke-width="5"/>
<path d="M506.668 375.833H509.168V373.333V320V317.5H506.668H404.268H401.768V320V341.333V343.833H404.268H482.834V373.333V375.833H485.334H506.668Z" fill="#333333" stroke="#333333" stroke-width="5"/>
<path d="M404.268 242.833H401.768V245.333V266.667V269.167H404.268H496.001H498.501V266.667V245.333V242.833H496.001H404.268Z" fill="#333333" stroke="#333333" stroke-width="5"/>
<path d="M506.668 194.5H509.168V192V138.667V136.167H506.668H485.334H482.834V138.667V168.167H404.268H401.768V170.667V192V194.5H404.268H506.668Z" fill="#333333" stroke="#333333" stroke-width="5"/>
<path d="M26.6673 375.833H29.1673V373.333V343.833H107.734H110.234V341.333V320V317.5H107.734H5.33398H2.83398V320V373.333V375.833H5.33398H26.6673Z" fill="#333333" stroke="#333333" stroke-width="5"/>
<path d="M16 242.833H13.5V245.333V266.667V269.167H16H107.733H110.233V266.667V245.333V242.833H107.733H16Z" fill="#333333" stroke="#333333" stroke-width="5"/>
<path d="M107.734 194.5H110.234V192V170.667V168.167H107.734H29.1673V138.667V136.167H26.6673H5.33398H2.83398V138.667V192V194.5H5.33398H107.734Z" fill="#333333" stroke="#333333" stroke-width="5"/>
</g>
<defs>
<clipPath id="clip0_3922_2546">
<rect width="512" height="512" fill="white"/>
</clipPath>
</defs>
</svg>
