<svg width="512" height="512" viewBox="0 0 512 512" fill="none" xmlns="http://www.w3.org/2000/svg">
<g clip-path="url(#clip0_3922_2542)">
<path d="M504.502 303.126L411.429 249.388C438.56 122.749 337.675 -1.5179 207.819 0.0250002C93.0634 0.0230004 0.0333628 93.052 0.0333628 207.81C-2.52347 347.025 142.35 450.716 273.15 405.096V436.697C273.15 442.056 276.009 447.007 280.649 449.686L385.076 509.98C389.717 512.66 395.434 512.66 400.076 509.98L504.502 449.686C509.143 447.006 512.001 442.056 512.001 436.697V316.116C512 310.757 509.142 305.806 504.502 303.126ZM123.444 51.2847C107.571 74.3362 97.2001 99.3586 89.7916 128.548H48.6632C65.0392 95.7328 91.2435 68.6796 123.444 51.2847ZM30.0314 207.81C30.0314 190.717 32.4513 174.19 36.954 158.546H83.895C79.1943 190.29 79.1943 225.328 83.895 257.072H36.954C32.4513 241.428 30.0314 224.903 30.0314 207.81ZM48.6632 287.07H89.7916C97.2021 316.264 107.57 341.279 123.444 364.335C91.2435 346.94 65.0392 319.886 48.6632 287.07ZM192.821 383.389C157.88 373.952 130.723 325.382 120.789 287.072H192.821V383.389ZM192.821 257.072H114.227C109.085 225.633 109.085 189.985 114.227 158.546H192.821V257.072ZM192.821 128.548H120.789C125.878 110.387 132.754 93.673 141.271 79.0719C155.915 53.9675 173.825 37.8266 192.821 32.2289V128.548ZM385.608 207.81C385.608 220.479 384.273 232.833 381.751 244.751L360.41 257.073H331.744C336.445 225.329 336.445 190.291 331.744 158.547H378.685C383.19 174.19 385.608 190.717 385.608 207.81ZM366.978 128.548H325.849C319.93 104.786 311.323 82.8857 300.281 63.9569C297.687 59.5112 294.986 55.2934 292.196 51.2837C324.397 68.6796 350.602 95.7328 366.978 128.548ZM222.819 32.2299C241.816 37.8276 259.726 53.9685 274.37 79.0729C282.887 93.674 289.763 110.388 294.852 128.549H222.82V32.2299H222.819ZM222.819 158.546H301.414C306.558 190.088 306.571 225.403 301.358 257.072H222.819V158.546ZM222.819 383.389V287.072H294.851C293.946 290.302 292.964 293.469 291.947 296.604L280.649 303.127C276.009 305.807 273.15 310.758 273.15 316.117V338.6C258.736 362.53 241.292 377.946 222.819 383.389ZM482.002 428.037L392.575 479.671L303.148 428.037V324.775L392.575 273.141L482.002 324.775V428.037Z" fill="#333333"/>
<path d="M380.097 311.852L342.607 368.081C339.248 373.12 339.248 379.684 342.607 384.722L380.097 440.961C385.766 449.793 399.387 449.791 405.056 440.961L442.546 384.722C445.904 379.684 445.904 373.12 442.546 368.081L405.056 311.852C399.386 303.019 385.764 303.021 380.097 311.852ZM412.039 376.403L392.576 405.599L373.113 376.403L392.576 347.212L412.039 376.403Z" fill="#333333"/>
</g>
<defs>
<clipPath id="clip0_3922_2542">
<rect width="512" height="512" fill="white"/>
</clipPath>
</defs>
</svg>
